# xmcd CD database file
#
# Track frame offsets:
#	150
#	8748
#	16773
#	41238
#	56711
#	76050
#	103830
#	126530
#	153059
#	172756
#	190515
#
# Disc length: 2636 seconds
#
# Revision: 0
# Processed by: cddbd v1.5.2PL0 Copyright (c) Steve Scherf et al.
# Submitted via: CDex 1.70beta2
#
DISCID=7a0a4a0b
DTITLE=Christmastime is here - Lafayette Harris, Jr.
DYEAR=1900
DGENRE=Jazz
TTITLE0=O Little town of Bethlehem
TTITLE1=Jesu, Joy of Man's desire
TTITLE2=Christmastime is here
TTITLE3=We need a little christmas
TTITLE4=The christmas song
TTITLE5=Silent Night
TTITLE6=Frosty the Snowman
TTITLE7=Twas the Night Before Christmas.. Yeah!
TTITLE8=Rudolph the Red-Nosed Reindeer
TTITLE9=God rest ye Mery Gentlemen
TTITLE10=The first Noel
EXTD=
EXTT0=
EXTT1=
EXTT2=
EXTT3=
EXTT4=
EXTT5=
EXTT6=
EXTT7=
EXTT8=
EXTT9=
EXTT10=
PLAYORDER=
